<svg viewBox="0 0 90 91" fill="none" xmlns="http://www.w3.org/2000/svg">
<rect x="28.5" y="27.5" width="61" height="36" stroke="currentColor"/>
<path d="M56.8984 38.5176C58.4023 38.5176 59.571 38.8203 60.4043 39.4258C61.2441 40.0312 61.6641 40.8906 61.6641 42.0039C61.6641 42.7591 61.4655 43.4232 61.0684 43.9961C60.6777 44.5625 60.056 45.0573 59.2031 45.4805C60.2578 46.0794 61 46.6784 61.4297 47.2773C61.8659 47.8698 62.084 48.5111 62.084 49.2012C62.084 50.4707 61.625 51.4538 60.707 52.1504C59.7891 52.847 58.5065 53.1953 56.8594 53.1953C55.1797 53.1953 53.8939 52.8568 53.002 52.1797C52.11 51.4961 51.6641 50.5163 51.6641 49.2402C51.6641 48.4134 51.8626 47.7103 52.2598 47.1309C52.6569 46.5449 53.3242 46.0143 54.2617 45.5391C53.5065 45.0312 52.9531 44.4876 52.6016 43.9082C52.2565 43.3223 52.084 42.681 52.084 41.9844C52.084 40.8906 52.5104 40.041 53.3633 39.4355C54.2161 38.8236 55.3945 38.5176 56.8984 38.5176ZM55.1992 49.084C55.1992 49.4876 55.3424 49.8132 55.6289 50.0605C55.9154 50.3014 56.3125 50.4219 56.8203 50.4219C57.9661 50.4219 58.5391 50.002 58.5391 49.1621C58.5391 48.8431 58.4121 48.5306 58.1582 48.2246C57.9108 47.9121 57.4648 47.5638 56.8203 47.1797C56.2409 47.4857 55.8242 47.7949 55.5703 48.1074C55.3229 48.4134 55.1992 48.7389 55.1992 49.084ZM56.8789 41.3008C56.5469 41.3008 56.2669 41.3984 56.0391 41.5938C55.8112 41.7826 55.6973 42.0299 55.6973 42.3359C55.6973 42.8958 56.0781 43.3906 56.8398 43.8203C57.3021 43.5534 57.6178 43.3092 57.7871 43.0879C57.9564 42.8665 58.041 42.6159 58.041 42.3359C58.041 42.0234 57.9271 41.7728 57.6992 41.584C57.4714 41.3952 57.1979 41.3008 56.8789 41.3008Z" fill="currentColor"/>
<circle cx="57" cy="79" r="11.5" transform="rotate(180 57 79)" stroke="currentColor"/>
<circle cx="12" cy="43" r="11.5" transform="rotate(180 12 43)" stroke="currentColor"/>
<circle cx="57" cy="12" r="11.5" transform="rotate(180 57 12)" stroke="currentColor"/>
</svg>
