<svg viewBox="0 0 95 121" fill="none" xmlns="http://www.w3.org/2000/svg">
<rect x="27.5" y="0.5" width="40" height="93" stroke="currentColor"/>
<path d="M52.4785 44.8184C52.4785 45.7038 52.2083 46.4655 51.668 47.1035C51.1276 47.735 50.3464 48.194 49.3242 48.4805V48.5391C51.707 48.8385 52.8984 49.9648 52.8984 51.918C52.8984 53.2461 52.3711 54.291 51.3164 55.0527C50.2682 55.8145 48.8099 56.1953 46.9414 56.1953C46.1732 56.1953 45.4603 56.14 44.8027 56.0293C44.1517 55.9186 43.4453 55.7168 42.6836 55.4238V52.2207C43.3086 52.5397 43.9434 52.7773 44.5879 52.9336C45.2389 53.0833 45.8379 53.1582 46.3848 53.1582C47.2311 53.1582 47.8464 53.041 48.2305 52.8066C48.6211 52.5658 48.8164 52.1914 48.8164 51.6836C48.8164 51.293 48.7155 50.9935 48.5137 50.7852C48.3118 50.5703 47.9863 50.4108 47.5371 50.3066C47.0879 50.196 46.502 50.1406 45.7793 50.1406H44.9004V47.2402H45.7988C47.7585 47.2402 48.7383 46.7389 48.7383 45.7363C48.7383 45.3587 48.5918 45.0788 48.2988 44.8965C48.0124 44.7142 47.625 44.623 47.1367 44.623C46.2253 44.623 45.2812 44.929 44.3047 45.541L42.7031 42.9629C43.4583 42.4421 44.2298 42.071 45.0176 41.8496C45.8118 41.6283 46.7201 41.5176 47.7422 41.5176C49.2201 41.5176 50.3789 41.8105 51.2188 42.3965C52.0586 42.9824 52.4785 43.7897 52.4785 44.8184Z" fill="currentColor"/>
<circle cx="12" cy="12" r="11.5" stroke="currentColor"/>
<circle cx="83" cy="13" r="11.5" stroke="currentColor"/>
<circle cx="12" cy="45" r="11.5" stroke="currentColor"/>
<circle cx="83" cy="46" r="11.5" stroke="currentColor"/>
<circle cx="12" cy="78" r="11.5" stroke="currentColor"/>
<circle cx="83" cy="79" r="11.5" stroke="currentColor"/>
<circle cx="48" cy="109" r="11.5" stroke="currentColor"/>
</svg>
