<svg viewBox="0 0 95 121" fill="none" xmlns="http://www.w3.org/2000/svg">
<rect x="27.5" y="0.5" width="40" height="93" stroke="currentColor"/>
<path d="M52.957 56H42.5957V53.4609L46.082 49.9355C47.0781 48.8939 47.7292 48.1842 48.0352 47.8066C48.3411 47.4225 48.5527 47.0938 48.6699 46.8203C48.7936 46.5469 48.8555 46.2604 48.8555 45.9609C48.8555 45.5898 48.735 45.2969 48.4941 45.082C48.2533 44.8672 47.9147 44.7598 47.4785 44.7598C47.0293 44.7598 46.5736 44.89 46.1113 45.1504C45.6556 45.4043 45.138 45.7819 44.5586 46.2832L42.4395 43.8027C43.1751 43.1452 43.7936 42.6764 44.2949 42.3965C44.7962 42.11 45.3398 41.8919 45.9258 41.7422C46.5182 41.5924 47.1823 41.5176 47.918 41.5176C48.8424 41.5176 49.666 41.6803 50.3887 42.0059C51.1178 42.3314 51.681 42.7969 52.0781 43.4023C52.4818 44.0013 52.6836 44.6751 52.6836 45.4238C52.6836 45.9837 52.612 46.5013 52.4688 46.9766C52.332 47.4518 52.1172 47.9206 51.8242 48.3828C51.5312 48.8385 51.1406 49.3203 50.6523 49.8281C50.1706 50.3359 49.1387 51.2995 47.5566 52.7188V52.8164H52.957V56Z" fill="currentColor"/>
<circle cx="12" cy="12" r="11.5" stroke="currentColor"/>
<circle cx="83" cy="13" r="11.5" stroke="currentColor"/>
<circle cx="12" cy="45" r="11.5" stroke="currentColor"/>
<circle cx="83" cy="46" r="11.5" stroke="currentColor"/>
<circle cx="12" cy="78" r="11.5" stroke="currentColor"/>
<circle cx="83" cy="79" r="11.5" stroke="currentColor"/>
<circle cx="48" cy="109" r="11.5" stroke="currentColor"/>
</svg>
