<svg viewBox="0 0 95 121" fill="none" xmlns="http://www.w3.org/2000/svg">
<rect x="27.5" y="0.5" width="40" height="93" stroke="currentColor"/>
<circle cx="12" cy="12" r="11.5" stroke="currentColor"/>
<circle cx="83" cy="13" r="11.5" stroke="currentColor"/>
<circle cx="12" cy="45" r="11.5" stroke="currentColor"/>
<circle cx="83" cy="46" r="11.5" stroke="currentColor"/>
<circle cx="12" cy="78" r="11.5" stroke="currentColor"/>
<circle cx="83" cy="79" r="11.5" stroke="currentColor"/>
<circle cx="48" cy="109" r="11.5" stroke="currentColor"/>
<path d="M42.6836 48.9648C42.6836 46.9727 42.9668 45.3613 43.5332 44.1309C44.1061 42.8939 44.946 41.9824 46.0527 41.3965C47.166 40.8105 48.5365 40.5176 50.1641 40.5176C50.7435 40.5176 51.4206 40.5729 52.1953 40.6836V43.7012C51.5443 43.5775 50.8379 43.5156 50.0762 43.5156C48.7871 43.5156 47.8268 43.7988 47.1953 44.3652C46.5638 44.9316 46.2188 45.8561 46.1602 47.1387H46.2773C46.8633 46.0319 47.804 45.4785 49.0996 45.4785C50.3691 45.4785 51.3522 45.8887 52.0488 46.709C52.752 47.5228 53.1035 48.6589 53.1035 50.1172C53.1035 51.6862 52.6608 52.9264 51.7754 53.8379C50.89 54.7428 49.653 55.1953 48.0645 55.1953C46.3783 55.1953 45.0599 54.6484 44.1094 53.5547C43.1589 52.4609 42.6836 50.931 42.6836 48.9648ZM47.9766 52.1387C48.3867 52.1387 48.7188 51.9857 48.9727 51.6797C49.2331 51.3672 49.3633 50.8724 49.3633 50.1953C49.3633 49.0365 48.9141 48.457 48.0156 48.457C47.5729 48.457 47.2116 48.6068 46.9316 48.9062C46.6582 49.2057 46.5215 49.5703 46.5215 50C46.5215 50.625 46.6549 51.1393 46.9219 51.543C47.1888 51.9401 47.5404 52.1387 47.9766 52.1387Z" fill="currentColor"/>
</svg>
