<svg viewBox="0 0 95 121" fill="none" xmlns="http://www.w3.org/2000/svg">
<rect x="27.5" y="0.5" width="40" height="93" fill="currentColor" stroke="currentColor"/>
<path opacity="0.9" d="M48.4844 44.6445C49.3047 44.6445 50.0436 44.8366 50.7012 45.2207C51.3652 45.5983 51.8796 46.1354 52.2441 46.832C52.6152 47.5286 52.8008 48.3327 52.8008 49.2441C52.8008 50.8392 52.319 52.0632 51.3555 52.916C50.3984 53.7689 48.9466 54.1953 47 54.1953C45.3333 54.1953 43.9727 53.9382 42.918 53.4238V50.2598C43.4844 50.5202 44.1224 50.735 44.832 50.9043C45.5482 51.0736 46.1634 51.1582 46.6777 51.1582C47.3939 51.1582 47.944 51.0085 48.3281 50.709C48.7122 50.403 48.9043 49.9538 48.9043 49.3613C48.9043 48.8145 48.709 48.388 48.3184 48.082C47.9277 47.776 47.3353 47.623 46.541 47.623C45.9355 47.623 45.2812 47.737 44.5781 47.9648L43.1621 47.2617L43.6992 39.7227H51.8438V42.9355H46.9805L46.8047 44.8203C47.3125 44.7227 47.6738 44.6706 47.8887 44.6641C48.1035 44.651 48.3021 44.6445 48.4844 44.6445Z" fill="black"/>
<circle cx="12" cy="12" r="11.5" fill="currentColor"/>
<circle cx="83" cy="13" r="11.5" fill="currentColor"/>
<circle cx="12" cy="45" r="11.5" fill="currentColor"/>
<circle cx="83" cy="46" r="11.5" fill="currentColor"/>
<circle cx="12" cy="78" r="11.5" fill="currentColor"/>
<circle cx="83" cy="79" r="11.5" fill="currentColor"/>
<circle cx="48" cy="109" r="11.5" fill="currentColor"/>
</svg>
