<svg viewBox="0 0 127 93" xmlns="http://www.w3.org/2000/svg">
<path d="M0 65H95V0H127V64.8261V93H0V65Z" fill="currentColor"/>
<path d="M106.199 85H102.283V77.4414C102.283 76.5234 102.303 75.6836 102.342 74.9219C102.101 75.2148 101.801 75.5208 101.443 75.8398L99.8223 77.1777L97.8203 74.7168L102.723 70.7227H106.199V85ZM119.734 77.8809C119.734 80.4069 119.311 82.2591 118.465 83.4375C117.618 84.6094 116.323 85.1953 114.578 85.1953C112.872 85.1953 111.587 84.5833 110.721 83.3594C109.855 82.1289 109.422 80.3027 109.422 77.8809C109.422 75.3418 109.845 73.4798 110.691 72.2949C111.538 71.11 112.833 70.5176 114.578 70.5176C116.277 70.5176 117.56 71.1361 118.426 72.373C119.298 73.6035 119.734 75.4395 119.734 77.8809ZM113.26 77.8809C113.26 79.4954 113.361 80.6055 113.562 81.2109C113.764 81.8164 114.103 82.1191 114.578 82.1191C115.06 82.1191 115.398 81.8066 115.594 81.1816C115.796 80.5566 115.896 79.4564 115.896 77.8809C115.896 76.2988 115.796 75.1921 115.594 74.5605C115.392 73.9225 115.053 73.6035 114.578 73.6035C114.103 73.6035 113.764 73.9095 113.562 74.5215C113.361 75.1335 113.26 76.2533 113.26 77.8809Z"/>
<circle cx="12" cy="50" r="12" fill="currentColor"/>
<circle cx="46" cy="50" r="12" fill="currentColor"/>
<circle cx="79" cy="50" r="12" fill="currentColor"/>
<circle cx="79" cy="16" r="12" fill="currentColor"/>
</svg>
